Coordinates
version=1
nRows=12
nColumns=34
inDegrees=no

Units are S.I. units (second, meters, Newtons, ...)
If the header above contains a line with 'inDegrees', this indicates whether rotational values are in degrees (yes) or radians (no).

endheader
time	pelvis_tilt	pelvis_list	pelvis_rotation	pelvis_tx	pelvis_ty	pelvis_tz	hip_flexion_r	hip_adduction_r	hip_rotation_r	knee_angle_r	ankle_angle_r	subtalar_angle_r	mtp_angle_r	hip_flexion_l	hip_adduction_l	hip_rotation_l	knee_angle_l	ankle_angle_l	subtalar_angle_l	mtp_angle_l	lumbar_extension	lumbar_bending	lumbar_rotation	arm_flex_r	arm_add_r	arm_rot_r	elbow_flex_r	pro_sup_r	arm_flex_l	arm_add_l	arm_rot_l	elbow_flex_l	pro_sup_l
0	0.156057	-0.00635209	0.0505703	-0.290089	0.899465	-0.232863	0.344564	-0.00317957	-0.26941	0.0949054	0.295565	0.244572	-0.0117321	-0.505119	0.0343121	-0.200882	0.15493	0.37432	0.128888	-0.0125859	-0.360499	0.0688554	-0.127018	-0.0719923	-0.14584	-0.293498	0.567897	1.86876	0.186892	-0.244463	0.164632	0.770271	1.8136
0.01	0.153178	-0.0186201	0.0519674	-0.272153	0.905307	-0.233593	0.343691	0.0111832	-0.252602	0.101104	0.234969	0.186759	-0.0117349	-0.516659	0.0200906	-0.212841	0.162308	0.372979	0.138703	-0.0125734	-0.351499	0.0903719	-0.124493	-0.0771806	-0.145957	-0.311793	0.561783	1.86983	0.180058	-0.235298	0.15396	0.769328	1.8118
0.02	0.150134	-0.0315053	0.0528207	-0.254311	0.910363	-0.234212	0.344953	0.0258699	-0.236999	0.113046	0.18017	0.131712	-0.0117376	-0.525592	0.00493049	-0.22341	0.173584	0.365251	0.143751	-0.0125608	-0.34228	0.112151	-0.1227	-0.0813883	-0.146334	-0.329098	0.555613	1.87134	0.171807	-0.225741	0.142122	0.767976	1.80978
0.03	0.146903	-0.0449743	0.0531059	-0.236576	0.914692	-0.234713	0.348335	0.0408777	-0.222469	0.130652	0.131242	0.0793464	-0.0117403	-0.531831	-0.0111403	-0.232585	0.188842	0.351078	0.144004	-0.0125482	-0.332824	0.134138	-0.121646	-0.0845969	-0.14696	-0.345377	0.54938	1.87329	0.162135	-0.215807	0.129103	0.766227	1.80758
0.04	0.143421	-0.0589222	0.0527638	-0.218966	0.918355	-0.235086	0.353772	0.0561894	-0.208682	0.153663	0.0883977	0.029454	-0.0117431	-0.535141	-0.0280402	-0.240343	0.208319	0.330291	0.13941	-0.0125356	-0.323089	0.156174	-0.121349	-0.0867573	-0.147807	-0.36053	0.543063	1.87567	0.151032	-0.20554	0.114869	0.764109	1.80524
0.05	0.139592	-0.0731523	0.0517111	-0.201503	0.921418	-0.23531	0.361102	0.0717573	-0.195146	0.181556	0.051977	-0.0182419	-0.0117458	-0.535121	-0.045626	-0.246636	0.232412	0.302615	0.129924	-0.012523	-0.313018	0.177968	-0.121848	-0.0877962	-0.148818	-0.374374	0.536642	1.87842	0.138503	-0.195029	0.0993804	0.761671	1.80292
0.06	0.135308	-0.0873856	0.0498683	-0.184214	0.92395	-0.235364	0.370017	0.0874943	-0.181332	0.213482	0.0223663	-0.0639762	-0.0117486	-0.531249	-0.06371	-0.251399	0.261628	0.267745	0.115589	-0.0125104	-0.30256	0.199121	-0.123174	-0.0876443	-0.14991	-0.386666	0.530117	1.88148	0.124602	-0.18441	0.0826427	0.75897	1.80079
0.07	0.13048	-0.101296	0.0471998	-0.167133	0.926023	-0.23523	0.380035	0.103273	-0.166829	0.248259	-0.00013614	-0.107811	-0.0117513	-0.522955	-0.0820946	-0.254557	0.296486	0.22549	0.0966099	-0.0124978	-0.291698	0.219178	-0.125317	-0.086281	-0.15098	-0.397161	0.52355	1.88473	0.109481	-0.173858	0.0647754	0.756041	1.79912
0.08	0.125074	-0.114559	0.0437513	-0.150296	0.927713	-0.234901	0.390498	0.118927	-0.151488	0.284418	-0.0154388	-0.149525	-0.011754	-0.509727	-0.10061	-0.256041	0.337388	0.175959	0.0734148	-0.0124852	-0.280482	0.237706	-0.128171	-0.083788	-0.151914	-0.405689	0.517116	1.88805	0.0934451	-0.163575	0.0460966	0.752861	1.79816
0.09	0.119132	-0.126904	0.0396765	-0.133747	0.929098	-0.234384	0.400616	0.134254	-0.135512	0.320333	-0.0237279	-0.188573	-0.0117568	-0.49121	-0.119134	-0.255784	0.384499	0.119764	0.0466673	-0.0124726	-0.269053	0.254366	-0.131474	-0.0803946	-0.152593	-0.412236	0.51113	1.89129	0.0769836	-0.153768	0.027191	0.749313	1.79812
0.1	0.112782	-0.138138	0.0352432	-0.117527	0.930255	-0.233708	0.409544	0.149009	-0.119467	0.354384	-0.0254613	-0.22412	-0.0117595	-0.467276	-0.137589	-0.253708	0.437635	0.058175	0.0172266	-0.0124601	-0.257641	0.268948	-0.134799	-0.0764918	-0.15291	-0.41699	0.506059	1.8943	0.0607766	-0.144641	0.00892709	0.745173	1.79914
0.11	0.106217	-0.148152	0.0308152	-0.101679	0.93126	-0.232917	0.416485	0.162901	-0.104204	0.385148	-0.0213082	-0.25515	-0.0117623	-0.438057	-0.155896	-0.249703	0.496212	-0.00680319	-0.0139436	-0.0124475	-0.246549	0.281375	-0.137585	-0.0725949	-0.152775	-0.420307	0.502465	1.89697	0.0456362	-0.136372	-0.00761912	0.740128	1.80122
